<svg xmlns="http://www.w3.org/2000/svg" viewBox="0 0 512 512">
  <defs>
    <radialGradient id="glow" cx="82%" cy="112%" r="80%">
      <stop offset="0" stop-color="#E2231A" stop-opacity="0.55"/>
      <stop offset="0.72" stop-color="#E2231A" stop-opacity="0"/>
    </radialGradient>
    <clipPath id="c0"><rect x="0" y="0" width="76" height="100"/></clipPath>
    <clipPath id="c1"><rect x="0" y="0" width="76" height="100"/></clipPath>
    <clipPath id="c2"><rect x="0" y="0" width="92" height="100"/></clipPath>
  </defs>
  <rect width="512" height="512" rx="96" fill="#141414"/>
  <rect width="512" height="512" rx="96" fill="url(#glow)"/>
  <g transform="translate(36 192.5) scale(1.62)" fill="none" stroke="#E2231A" stroke-width="20" stroke-linejoin="miter" stroke-miterlimit="20">
    <g clip-path="url(#c0)"><path d="M76 10 H30 A20 20 0 0 0 10 30 V70 A20 20 0 0 0 30 90 H76"/></g>
    <g transform="translate(90 0)"><g clip-path="url(#c1)"><path d="M10 0 V100 M10 10 H42 A20 20 0 0 1 42 50 H10 M10 50 H46 A20 20 0 0 1 46 90 H10"/></g></g>
    <g transform="translate(180 0)"><g clip-path="url(#c2)"><path d="M10 100 V0 L46 80 L82 0 V100"/></g></g>
  </g>
</svg>
